<?xml version="1.0" encoding="UTF-8"?>
<svg id="Layer_2" data-name="Layer 2" xmlns="http://www.w3.org/2000/svg" viewBox="0 0 203.89 196.37">
  <defs>
    <style>
      .cls-1, .cls-2 {
        stroke-width: 0px;
      }

      .cls-1, .cls-3 {
        fill: #2e3192;
      }

      .cls-2 {
        fill: #ec008c;
      }

      .cls-3 {
        stroke: #2e3192;
        stroke-miterlimit: 10;
      }
    </style>
  </defs>
  <g id="AddFriend">
    <path class="cls-1" d="M174.26,0c1.09.67.76,1.35.88,2.02l.15,2.02c1.61,18.75,1.85,37.77.27,56.52,0,0-.14,2.02-.14,2.02-.01.67-.15,1.35-1.16,2.02h-3.91c-1.01-.67-1.14-1.35-1.16-2.02l-.14-2.02c-.28-3.93-.59-8.2-.77-12.11-.72-14.71-.17-29.72,1.04-44.41,0,0,.15-2.02.15-2.02.13-.67-.21-1.35.88-2.02h3.91Z"/>
    <path class="cls-1" d="M140.74,30.35c.66-1.09,1.32-.76,1.97-.88l1.97-.15c18.33-1.61,36.93-1.85,55.26-.27,0,0,1.97.14,1.97.14.66.01,1.32.15,1.97,1.16v3.91c-.66,1.01-1.32,1.14-1.97,1.16l-1.97.14c-3.84.28-8.02.59-11.84.77-14.39.72-29.06.17-43.42-1.04,0,0-1.97-.15-1.97-.15-.66-.13-1.32.21-1.97-.88v-3.91h0Z"/>
    <ellipse class="cls-3" cx="85.6" cy="57.01" rx="38.22" ry="38.52"/>
    <path class="cls-3" d="M85.9,110.64C39.08,112.61-3.89,148.39.86,167.53c8.4,33.84,171.76,38.94,181.63,6.81,6-19.52-40.65-66.06-96.59-63.7Z"/>
    <path class="cls-2" d="M96.98,29.91c-5.45,10.03-11.49,19.72-18.08,29.04-.78,1.1-.2,2.78.9,3.42,1.25.73,2.64.21,3.42-.9,6.59-9.32,12.63-19.01,18.08-29.04,1.54-2.83-2.78-5.35-4.32-2.52h0Z"/>
    <path class="cls-2" d="M74.44,40.36c11.18,3.62,21.54,9.61,30.25,17.5,2.38,2.16,5.93-1.37,3.54-3.54-9.37-8.48-20.43-14.89-32.46-18.79-3.07-.99-4.38,3.83-1.33,4.82h0Z"/>
  </g>
</svg>