<?xml version="1.0" encoding="UTF-8"?>
<svg id="Layer_2" data-name="Layer 2" xmlns="http://www.w3.org/2000/svg" viewBox="0 0 114.05 240.71">
  <defs>
    <style>
      .cls-1 {
        fill: #2e3192;
      }

      .cls-1, .cls-2 {
        stroke-width: 0px;
      }

      .cls-2 {
        fill: #ec008c;
      }
    </style>
  </defs>
  <g id="upload_file" data-name="upload file">
    <path class="cls-1" d="M68.96,151.13c.72-21.96,4.14-67.78-4.87-86.35-.63-1.19-1.41-1.92-1.55-2.03-.08-.08.08-.05.11-.09-.99.11-2.02,1.21-3.13,2.45-3.13,3.85-5.2,8.59-6.78,13.43-1.68,5.08-2.6,10.46-3.13,15.78-2.41,20.43-4.01,41.06-3.38,61.62.49,17.21,2.69,34.34,6.3,51.17,4.33,19.72,14.31,32.63,28.51,9.81,22.99-39.94,19.6-111.9,14.02-157.01-2.18-16.47-9.01-38.18-25.94-43.8-11.99-3.59-23.31,5.21-30.53,14.9-8.54,11.37-13.67,24.86-17.51,38.57-5.78,21.36-8.09,43.62-8.75,65.75-.17,7.45-.22,14.92-.1,22.41.08,3.17-2.44,5.8-5.61,5.85-3.07.05-5.61-2.34-5.79-5.38C.38,150.55.02,142.88,0,135.2c-.06-23.29,1.6-46.41,7.31-69.24C13.39,42.87,23.7,17.17,45.73,4.73c18.08-9.92,37.78-3.54,49.64,12.59,10.16,13.72,14.04,29.88,15.67,46.36,4.01,38.35,4.89,77.29-2.97,115.29-4.31,19.52-12.4,47.35-30.33,58.64-6.92,4.34-16.09,4.26-22.46-1.17-10.09-8.68-12.43-22.11-14.58-34.31-6.74-37.88-4.9-76.73-.12-114.73,1.52-11.86,10.03-41.47,26.86-34.69,18.91,8.66,20.11,78.79,20.51,98.77.05,5.25-4.16,9.55-9.41,9.6-5.45.07-9.87-4.53-9.59-9.97h0Z"/>
  </g>
  <g id="AddFriend">
    <path class="cls-2" d="M3.95,152.1c.74.53,1.45,1.12,2.11,1.75s1.28,1.26,1.78,1.98c.12.17.45.63.27.86s-.63.04-.81-.06c-.63-.37-.94-1.14-.92-1.84.02-.81.53-1.51,1.23-1.88s.08-1.45-.63-1.08c-.95.5-1.65,1.45-1.81,2.52-.17,1.14.24,2.38,1.15,3.11.47.37,1.05.62,1.66.56.65-.07,1.24-.47,1.37-1.14.24-1.24-.9-2.33-1.67-3.15-.94-1.01-1.99-1.91-3.11-2.71-.28-.2-.7-.05-.86.22-.18.31-.05.66.22.86h0Z"/>
    <path class="cls-2" d="M2.99,135.56c1.74-5.26,3.63-10.79,7.86-14.6.6-.54-.29-1.42-.88-.88-4.4,3.95-6.38,9.7-8.18,15.16-.25.77.95,1.09,1.21.33h0Z"/>
    <path class="cls-2" d="M15.66,89.08c-3.46-8.55-5.66-17.57-6.48-26.76-.07-.79-1.32-.8-1.25,0,.83,9.31,3.01,18.43,6.52,27.09.3.74,1.51.41,1.21-.33h0Z"/>
    <path class="cls-2" d="M12.29,77.29c.98-3.62,2.07-7.68,5.25-10.03.64-.47.02-1.56-.63-1.08-3.48,2.58-4.74,6.78-5.82,10.77-.21.78,1,1.11,1.21.33h0Z"/>
    <path class="cls-2" d="M11.12,82.24c-1.6,2.94-2.75,6.12-3.39,9.41-.15.79,1.05,1.12,1.21.33.62-3.19,1.71-6.26,3.27-9.11.38-.71-.69-1.34-1.08-.63h0Z"/>
    <path class="cls-2" d="M22.32,55.53c1.33-11.01,2.93-22.46,9.22-31.88.45-.67-.63-1.3-1.08-.63-6.42,9.61-8.04,21.29-9.39,32.51-.1.8,1.15.79,1.25,0h0Z"/>
    <path class="cls-2" d="M24.06,31.72c9.63-2.01,17.37-8.46,24.68-14.66.61-.52-.27-1.4-.88-.88-7.15,6.07-14.71,12.37-24.13,14.34-.79.16-.45,1.37.33,1.21h0Z"/>
    <path class="cls-2" d="M41.68,13.4c1.42,1.5,3.41,1.89,5.41,1.82,2.69-.09,5.4-.7,8.03-1.19,5.97-1.1,11.88-2.53,17.7-4.24.77-.23.44-1.43-.33-1.21-5.2,1.53-10.47,2.83-15.79,3.88-2.64.52-5.29,1.03-7.96,1.37-2.13.27-4.58.36-6.17-1.32-.55-.59-1.44.3-.88.88h0Z"/>
    <path class="cls-2" d="M42.92,16.69c.65-6.52,7.45-9.56,12.86-11.39.76-.26.43-1.46-.33-1.21-3.29,1.11-6.6,2.39-9.3,4.64-2.41,2.01-4.17,4.8-4.48,7.95-.08.8,1.17.79,1.25,0h0Z"/>
    <path class="cls-2" d="M61.36,5.55c5.6,5.05,11.66,10.37,19.42,11.43.79.11,1.13-1.1.33-1.21-7.56-1.03-13.41-6.19-18.87-11.11-.6-.54-1.48.34-.88.88h0Z"/>
    <path class="cls-2" d="M71.29,3.79c.18,3.05,1.74,5.88,4.28,7.6,2.73,1.85,6.16,2.17,9.36,2.47.8.07.8-1.18,0-1.25-2.85-.26-5.87-.54-8.37-2.06-2.35-1.44-3.86-4-4.02-6.75-.05-.8-1.3-.8-1.25,0h0Z"/>
    <path class="cls-2" d="M80.63,8.48c-3.01,6.93-.94,14.92,5.06,19.51.64.49,1.26-.6.63-1.08-5.41-4.14-7.33-11.55-4.61-17.8.32-.73-.76-1.37-1.08-.63h0Z"/>
    <path class="cls-2" d="M83.17,22.32c2.47.23,5.05.47,7.33,1.52s3.93,2.77,5.54,4.54c.54.6,1.42-.29.88-.88-1.73-1.91-3.61-3.78-6-4.83s-5.12-1.35-7.75-1.6c-.8-.08-.8,1.17,0,1.25h0Z"/>
    <path class="cls-2" d="M92.71,17.42c-1.61,7.29-.3,15.03,3.67,21.36.43.68,1.51.05,1.08-.63-3.79-6.05-5.09-13.43-3.54-20.4.17-.78-1.03-1.12-1.21-.33h0Z"/>
    <path class="cls-2" d="M99.01,31.57c-2.25.23-4.31,1.14-6.21,2.34-1.77,1.12-3.83,2.62-3.4,5,.14.79,1.35.46,1.21-.33-.33-1.82,1.95-3.07,3.23-3.84,1.58-.95,3.32-1.72,5.17-1.92.79-.08.8-1.33,0-1.25h0Z"/>
    <path class="cls-2" d="M94.7,36.56c2.07,4.3,5.17,8.91,10.39,9.32.8.06.8-1.19,0-1.25-4.72-.37-7.47-4.87-9.31-8.7-.35-.72-1.43-.09-1.08.63h0Z"/>
    <path class="cls-2" d="M103.33,38.86c-1.6,2.22-1.87,5.43-2.05,8.08-.22,3.07.02,6.16.66,9.17.17.79,1.37.45,1.21-.33-.59-2.8-.81-5.66-.64-8.52.15-2.52.38-5.65,1.9-7.77.47-.65-.61-1.28-1.08-.63h0Z"/>
    <path class="cls-2" d="M108.73,53.63c-3.73-.33-5.43,3.5-5.71,6.62-.42,4.62-.28,9.38-.18,14.01.21,9.42,2.12,19.09.43,28.45-.93,5.16-2.74,10.11-4.55,15.01-.28.76.93,1.08,1.21.33,1.48-4.03,2.97-8.08,3.97-12.27s1.36-8.39,1.25-12.67-.61-8.85-.85-13.27-.3-8.91-.23-13.37c.05-3.32-.78-12.08,4.66-11.6.8.07.8-1.18,0-1.25h0Z"/>
    <path class="cls-2" d="M97.76,73.77c9.37,15.83,14.15,34.15,13.73,52.54-.02.8,1.23.8,1.25,0,.43-18.6-4.43-37.16-13.9-53.17-.41-.69-1.49-.06-1.08.63h0Z"/>
    <path class="cls-2" d="M109.5,84.83c-.32,8.92-.64,17.85-1.59,26.73-.49,4.53-1.14,9.04-2.05,13.5s-2.1,8.6-3.29,12.87c-1.33,4.73-2.49,9.53-2.61,14.46-.02.8,1.23.8,1.25,0,.22-8.94,3.83-17.4,5.66-26.07s2.69-17.41,3.21-26.2c.3-5.09.48-10.2.67-15.3.03-.8-1.22-.8-1.25,0h0Z"/>
    <path class="cls-2" d="M99.36,119.98c4.65,17.24,8.94,35.57,4.45,53.31-.2.78,1.01,1.11,1.21.33,4.55-17.96.26-36.51-4.45-53.97-.21-.78-1.42-.45-1.21.33h0Z"/>
    <path class="cls-2" d="M111.1,149.35c-3.63,8.93-7.29,17.95-8.85,27.51s-1.45,19.25-6.23,27.92c-2.16,3.93-5.6,9.42-10.64,9.54-.8.02-.81,1.27,0,1.25,4.17-.1,7.17-3.33,9.43-6.51,2.74-3.84,4.72-8.19,5.88-12.76,1.25-4.93,1.61-10.03,2.21-15.07s1.74-10.34,3.33-15.36c1.74-5.5,3.91-10.85,6.09-16.19.3-.74-.91-1.07-1.21-.33h0Z"/>
    <path class="cls-2" d="M95.25,182.51c1.51,9.32-.21,18.77-3.44,27.55-1.6,4.35-3.55,8.59-5.77,12.66-1.87,3.43-4.27,7.06-8.25,8.18-.77.22-.44,1.42.33,1.21,6.44-1.81,9.51-9.35,12.05-14.86,3.22-6.98,5.69-14.36,6.57-22.03.5-4.34.41-8.71-.28-13.03-.13-.79-1.33-.46-1.21.33h0Z"/>
    <path class="cls-2" d="M100.83,156.51c-.62,5.75-.98,11.63-.63,17.42.29,4.76,1.52,9.66,5.19,12.96.6.54,1.48-.34.88-.88-3.81-3.44-4.73-8.61-4.89-13.51-.17-5.33.12-10.68.7-15.98.09-.8-1.16-.79-1.25,0h0Z"/>
    <path class="cls-2" d="M78.56,222.3c-.25,2.86-.7,5.76-1.54,8.52s-2.62,4.35-5.2,5.41c-4.42,1.8-9.99,2.75-14.2-.04-.67-.45-1.3.64-.63,1.08,4.61,3.06,10.82,2.05,15.62-.03,2.46-1.06,4.34-2.67,5.31-5.21,1.16-3.05,1.6-6.49,1.88-9.72.07-.8-1.18-.8-1.25,0h0Z"/>
    <path class="cls-2" d="M76.79,236.31c-4.15-2.42-9.16-2.98-13.09-5.83-3.6-2.62-5.98-6.68-6.64-11.07-.12-.79-1.32-.46-1.21.33.67,4.45,3.07,8.57,6.61,11.35,4.06,3.19,9.32,3.73,13.7,6.29.7.41,1.33-.67.63-1.08h0Z"/>
    <path class="cls-2" d="M69.95,230.18c-3.05.23-6.25.48-9.2-.51s-5.37-3.46-7.23-5.99c-3.58-4.85-5.57-10.76-5.73-16.78-.02-.8-1.27-.81-1.25,0,.17,6.51,2.39,12.88,6.38,18.04,1.89,2.44,4.17,4.7,7.11,5.79,3.16,1.17,6.63.94,9.92.69.8-.06.8-1.31,0-1.25h0Z"/>
    <path class="cls-2" d="M52.24,210.75c-4.15-2.17-5.33-7.53-6.05-11.76-.9-5.31-.82-10.73-.76-16.09,0-.8-1.24-.81-1.25,0-.07,5.79-.13,11.64.97,17.35.83,4.31,2.27,9.39,6.46,11.58.71.37,1.34-.71.63-1.08h0Z"/>
    <path class="cls-2" d="M37.21,177.76c.44,2.19,1.18,4.3,1.91,6.41s1.46,4.14,2.41,6.11c1.65,3.43,4.04,6.59,7.46,8.4.71.38,1.34-.7.63-1.08-3.36-1.78-5.6-4.91-7.17-8.3-.88-1.89-1.56-3.86-2.25-5.83s-1.37-3.98-1.79-6.05c-.16-.79-1.36-.45-1.21.33h0Z"/>
    <path class="cls-2" d="M40.83,141.22c-3.61,9.3-2.71,20.01,2.36,28.59.41.69,1.49.06,1.08-.63-4.91-8.32-5.72-18.63-2.23-27.63.29-.75-.92-1.08-1.21-.33h0Z"/>
    <path class="cls-2" d="M46,153.53c-2.98,5.37-6.3,10.55-9.93,15.51-.48.65.61,1.27,1.08.63,3.63-4.96,6.95-10.14,9.93-15.51.39-.7-.69-1.34-1.08-.63h0Z"/>
    <path class="cls-2" d="M46.24,162.09c-1.62,4.68-3.25,9.4-4,14.3-.53,3.47-1.4,8.7,1.53,11.38.59.54,1.48-.34.88-.88-1.48-1.35-1.62-3.39-1.61-5.28.01-2.26.28-4.5.72-6.71.84-4.26,2.26-8.39,3.68-12.48.26-.76-.94-1.09-1.21-.33h0Z"/>
    <path class="cls-2" d="M46.04,136.97c-.71-9.56-1.02-19.15-.93-28.74,0-.8-1.24-.81-1.25,0-.1,9.59.21,19.18.93,28.74.06.8,1.31.8,1.25,0h0Z"/>
    <path class="cls-2" d="M43.43,115.23c-1.15,2.87-2.77,5.56-4.76,7.93-.51.61.37,1.5.88.88,2.14-2.55,3.84-5.4,5.08-8.48.13-.32-.14-.68-.44-.77-.36-.1-.64.12-.77.44h0Z"/>
    <path class="cls-2" d="M44.59,145.08c-1.49-5.61-3.62-11.02-6.33-16.15-.38-.71-1.46-.08-1.08.63,2.66,5.03,4.74,10.35,6.21,15.85.21.78,1.41.45,1.21-.33h0Z"/>
    <path class="cls-2" d="M72.41,144.86l12.8,2.63-.28-1.04c-2.23,2.38-4.63,4.59-7.19,6.61l1.07.44c-.44-4.73-.45-9.49-.02-14.23l-1.16.32c2.53,4.07,4.27,8.54,5.17,13.25l.92-.71c-3.01-1.53-5.17-4.34-5.88-7.65-.17-.79-1.37-.45-1.21.33.77,3.6,3.18,6.73,6.46,8.39.51.26,1.02-.16.92-.71-.91-4.8-2.71-9.4-5.3-13.55-.34-.55-1.11-.29-1.16.32-.43,4.73-.42,9.49.02,14.23.05.57.63.78,1.07.44,2.56-2.02,4.96-4.22,7.19-6.61.3-.32.21-.95-.28-1.04-4.27-.88-8.53-1.75-12.8-2.63-.79-.16-1.12,1.04-.33,1.21h0Z"/>
    <path class="cls-2" d="M81.75,96.51c-4.25,10.22-7.64,20.79-10.12,31.58-.18.78,1.02,1.12,1.21.33,2.48-10.79,5.87-21.35,10.12-31.58.31-.74-.9-1.07-1.21-.33h0Z"/>
    <path class="cls-2" d="M85.61,117.56c-7.46-8.11-12.72-18.8-11.19-30.06.11-.79-1.1-1.13-1.21-.33-1.59,11.74,3.71,22.8,11.51,31.28.55.59,1.43-.29.88-.88h0Z"/>
    <path class="cls-2" d="M68.51,65.09c5.19,2.62,8.77,7.99,9.12,13.81.05.8,1.3.8,1.25,0-.37-6.24-4.15-12.06-9.74-14.89-.72-.36-1.35.72-.63,1.08h0Z"/>
  </g>
</svg>