<?xml version="1.0" encoding="UTF-8"?>
<svg id="Layer_2" data-name="Layer 2" xmlns="http://www.w3.org/2000/svg" viewBox="0 0 183.51 179.16">
  <defs>
    <style>
      .cls-1, .cls-2, .cls-3 {
        stroke-width: 0px;
      }

      .cls-1, .cls-4 {
        fill: #2e3192;
      }

      .cls-2 {
        fill: #ec008c;
      }

      .cls-3 {
        fill: #662d91;
      }

      .cls-4 {
        stroke: #2e3192;
        stroke-miterlimit: 10;
      }
    </style>
  </defs>
  <g id="upload_file" data-name="upload file">
    <g id="send_message" data-name="send message">
      <g>
        <path class="cls-3" d="M44.81,8.28c-.09-1.07.02-1.77.13-2.13.33.02,1.03.12,2.16.61l22.53,10.44c1.2.62,2.54.94,3.88.94h14.91c1.06,0,2.1-.2,3.09-.59l35.25-11.26c-.08.33-.19.74-.37,1.24l-.09.27-7.03,22.95-64.86,7.17-9.6-29.63Z"/>
        <path class="cls-1" d="M117.67,15.49l-2.98,9.72-56.08,6.2-4.84-14.95,13.25,6.14c2.02,1.01,4.25,1.54,6.49,1.54h14.91c1.75,0,3.45-.31,5.08-.92l24.16-7.72M127.55,0c-.77,0-1.46.14-1.95.36l-36.15,11.55c-.33.15-.67.22-1.02.22h-14.91c-.42,0-.83-.11-1.22-.32L49.56,1.28c-1.79-.78-3.37-1.13-4.73-1.13-4.53,0-6.63,3.94-5.92,9.4l10.78,33.28c.37.87,1.12,1.42,1.92,1.42.07,0,.13,0,.2-.01l70.69-7.81c.77-.08,1.44-.66,1.76-1.5l7.77-25.37C134.7,2.13,130.56,0,127.55,0h0Z"/>
      </g>
      <path class="cls-1" d="M69.48,47.82c-1.28,4.98,2.14,9.07,6.02,11.66,3.64,2.43,8.1,5.15,12.67,4.54,1.29-.17,2.57-1.03,2.5-2.5-.05-1.21-1.11-2.69-2.5-2.5-.47.06-.93.1-1.4.09-.5-.01-.75-.05-.99-.1-.41-.09-.82-.2-1.22-.32-.23-.07-.45-.15-.67-.23-.27-.1-.16-.06-.33-.13-1.69-.73-3.28-1.73-4.84-2.71-.34-.22-.69-.44-1.02-.67-.3-.21-.73-.53-.79-.58-.34-.29-.68-.59-.99-.91-.16-.16-.31-.33-.46-.49-.05-.06-.26-.32-.1-.11-.26-.35-.47-.74-.69-1.12l-.12-.24c.06.16.06.15,0,0-.08-.2-.14-.41-.2-.62-.05-.17-.08-.33-.12-.5.08.38,0-.14-.01-.23,0-.21,0-.43,0-.64-.04.42.07-.27.09-.35.32-1.27-.41-2.77-1.75-3.08s-2.73.39-3.08,1.75h0Z"/>
      <path class="cls-1" d="M70.11,48.21c-.27,2.36-.42,4.86.49,7.11,1.09,2.72,3.38,4.29,6.13,5.09s5.5,1.21,8.24,1.43c2.48.19,5.34-.23,7.01-2.27.86-1.04,1.02-2.52,0-3.54-.88-.88-2.67-1.05-3.54,0-.15.19-.31.38-.5.53.27-.22-.06,0-.19.07-.21.11.23-.04-.18.06-.24.06-.48.13-.72.17.36-.06-.07,0-.22,0-.21.01-.43.02-.64.02-.43,0-.85-.03-1.28-.07-2.13-.2-4.31-.58-6.39-1.15-.37-.1-.94-.27-1.14-.35-.23-.09-.81-.39-1.14-.64.24.18-.63-.74-.4-.41-.14-.21-.26-.43-.38-.65.15.3-.03-.09-.07-.22-.06-.2-.12-.4-.17-.61,0-.01-.12-.78-.07-.35-.05-.44-.06-.88-.06-1.32,0-.98.1-1.95.21-2.92.16-1.34-1.26-2.5-2.5-2.5-1.48,0-2.34,1.15-2.5,2.5h0Z"/>
      <path class="cls-2" d="M107.91,20.09c5.18-3.16,10.66-5.93,16.25-8.13l-2.82-3.67c-1.2,2.5-2.42,4.99-3.66,7.46-.61,1.21-1.23,2.42-1.85,3.63-.3.58-.6,1.16-.9,1.73-.15.29-.3.58-.45.87-.1.19-.2.38-.3.58-.14.26-.16.28-.04.05l1.1-.64c1.38.64,1.82.7,1.32.18-.14-.17-.27-.34-.41-.51-.2-.25-.41-.51-.61-.76-.47-.59-.95-1.18-1.42-1.77-.95-1.18-1.9-2.37-2.85-3.55-.85-1.05-2.65-.88-3.54,0-1.04,1.04-.85,2.48,0,3.54,1.56,1.94,3.12,3.89,4.67,5.83.86,1.07,1.78,2.08,3.28,2.04,1.78-.05,2.61-1.5,3.33-2.89,2.3-4.38,4.51-8.8,6.64-13.26.44-.92.47-1.94-.2-2.78-.57-.72-1.7-1.26-2.63-.9-6.05,2.38-11.89,5.24-17.45,8.63-1.15.7-1.59,2.24-.9,3.42s2.26,1.6,3.42.9h0Z"/>
      <path class="cls-2" d="M65.49,15.77c-5.55-3.39-11.39-6.25-17.45-8.63-.91-.36-2.09.18-2.63.9-.64.85-.65,1.83-.2,2.78,2.13,4.46,4.35,8.88,6.64,13.26.69,1.31,1.39,2.59,3,2.84s2.68-.83,3.61-1.99c1.56-1.94,3.12-3.89,4.67-5.83.84-1.05,1.03-2.51,0-3.54-.87-.87-2.69-1.06-3.54,0-.95,1.18-1.9,2.37-2.85,3.55-.47.59-.95,1.18-1.42,1.77-.2.25-.41.51-.61.76-.14.17-.27.34-.41.51-.5.52-.06.46,1.32-.18l1.1.64c.12.23.1.21-.04-.05-.08-.14-.15-.29-.23-.43-.15-.29-.3-.58-.45-.87-.33-.63-.65-1.25-.98-1.88-.62-1.21-1.24-2.42-1.85-3.63-1.25-2.47-2.47-4.96-3.66-7.46l-2.82,3.67c5.59,2.2,11.07,4.96,16.25,8.13,1.15.7,2.75.25,3.42-.9s.26-2.72-.9-3.42h0Z"/>
      <path class="cls-2" d="M51.57,17.24c1.37.88,2.7,1.8,4,2.78.29.18.6.28.93.3.33.07.66.06,1-.04.58-.16,1.21-.61,1.49-1.15.31-.58.46-1.28.25-1.93l-.25-.6c-.22-.38-.52-.67-.9-.9-1.3-.97-2.63-1.9-4-2.78-.53-.34-1.33-.42-1.93-.25s-1.21.61-1.49,1.15c-.31.58-.46,1.28-.25,1.93s.58,1.13,1.15,1.49h0Z"/>
      <path class="cls-2" d="M116.81,11.25l-5.99,3.75c-1.06.66-1.51,1.96-1.02,3.12.2.48.55.95,1.02,1.2l.6.25c.44.12.89.12,1.33,0,1.13-.18,2.23-.47,3.3-.86.62-.23,1.15-.56,1.49-1.15.31-.54.45-1.33.25-1.93s-.57-1.19-1.15-1.49-1.3-.48-1.93-.25c-1.07.39-2.17.68-3.3.86l1.93,4.57,5.99-3.75c.54-.34.98-.87,1.15-1.49s.09-1.4-.25-1.93c-.72-1.11-2.23-1.64-3.42-.9h0Z"/>
    </g>
  </g>
  <g id="AddFriend">
    <ellipse class="cls-4" cx="85.6" cy="39.8" rx="38.22" ry="38.52"/>
    <path class="cls-4" d="M85.9,93.43C39.08,95.4-3.89,131.18.86,150.32c8.4,33.84,171.76,38.94,181.63,6.81,6-19.52-40.65-66.06-96.59-63.7Z"/>
    <path class="cls-2" d="M72.23,17.55c-.44,6.15-.3,12.32.42,18.45.16,1.34,1.04,2.5,2.5,2.5,1.23,0,2.66-1.15,2.5-2.5-.72-6.12-.86-12.3-.42-18.45.1-1.35-1.22-2.5-2.5-2.5-1.43,0-2.4,1.15-2.5,2.5h0Z"/>
    <path class="cls-2" d="M91.28,16.22c.55,6.14.98,12.28,1.29,18.43.07,1.35,1.1,2.5,2.5,2.5,1.3,0,2.57-1.14,2.5-2.5-.31-6.15-.73-12.3-1.29-18.43-.12-1.34-1.06-2.5-2.5-2.5-1.26,0-2.62,1.15-2.5,2.5h0Z"/>
    <path class="cls-2" d="M66.32,47.33c-.27,2.03-.44,4.08-.46,6.13-.02,1.87-.1,3.95.42,5.77,1.15,4,4.97,4.5,8.57,4.38s6.87-1.01,8.94-3.96c1.9-2.7,1.8-6.24,1.48-9.37h-5c.43,3.83.88,7.92,3.16,11.17,2.12,3.02,5.55,5.21,9.35,4.74,3.38-.42,6.33-2.83,7.78-5.88,1.81-3.83,1.48-8.11.44-12.11-.81-3.11-5.63-1.79-4.82,1.33.69,2.67,1.19,5.74.03,8.37-.72,1.62-2.26,3.16-4.09,3.37-2.01.23-3.81-1.38-4.79-2.97-1.46-2.38-1.76-5.3-2.07-8.02-.15-1.34-1.04-2.5-2.5-2.5-1.25,0-2.63,1.15-2.5,2.5.19,1.94.53,4.27-.34,6.1s-3.2,2.17-5.08,2.23c-.97.03-2.18.17-3.12-.11-.8-.24-.76-1.08-.8-1.84-.19-3.11-.02-6.24.39-9.33.18-1.34-1.28-2.5-2.5-2.5-1.5,0-2.32,1.16-2.5,2.5h0Z"/>
    <path class="cls-2" d="M64.28,120.67c17.81.31,35.61,1.02,53.39,2.13,5.04.32,10.08.67,15.12,1.05l-.6-.79c-.44,1.89-2.47,3.48-3.87,4.72-1.51,1.33-3.12,2.53-4.79,3.66-3.42,2.3-7.01,4.35-10.61,6.34s-7.57,4.02-11.44,5.84-7.76,3.32-11.59,5.09c-4.19,1.94-7.81,4.85-11.96,6.85l.92.71c1.9-8.67,5.84-16.65,9.41-24.72,1.73-3.92,3.38-7.88,4.66-11.97,1.43-4.56,2.34-9.26,3.24-13.94h-1.21c2.08,8.94,5.96,17.29,10.34,25.31,2.22,4.06,4.56,8.04,6.88,12.04,1.18,2.03,2.35,4.06,3.5,6.1,1.21,2.15,2.52,4.29,2.93,6.75l.6-.79c-2.07-.15-4.05-1.7-5.79-2.72s-3.44-2.06-5.13-3.12c-3.52-2.2-6.98-4.5-10.37-6.9-6.74-4.76-13.22-9.89-19.4-15.36-3.5-3.1-6.89-6.31-10.19-9.61-.57-.57-1.45.31-.88.88,11.98,12.01,25.3,22.67,39.65,31.72,2.07,1.3,4.16,2.58,6.27,3.81,1.83,1.07,3.68,2.4,5.85,2.56.44.03.66-.42.6-.79-.38-2.28-1.52-4.29-2.63-6.29s-2.31-4.08-3.49-6.1c-2.32-4-4.67-7.98-6.9-12.03-4.5-8.17-8.51-16.66-10.64-25.78-.14-.58-1.09-.61-1.21,0-.9,4.69-1.81,9.38-3.24,13.94-1.34,4.27-3.08,8.39-4.89,12.47-3.51,7.89-7.32,15.73-9.18,24.21-.12.55.42.94.92.71,3.81-1.84,7.14-4.5,10.94-6.36s8.02-3.45,11.98-5.28c7.92-3.68,15.83-7.79,23.04-12.72,1.8-1.23,3.55-2.56,5.16-4.04,1.43-1.32,3.26-2.87,3.72-4.84.1-.42-.19-.76-.6-.79-17.76-1.34-35.55-2.29-53.35-2.82-5.05-.15-10.1-.27-15.16-.36-.8-.01-.8,1.24,0,1.25h0Z"/>
  </g>
</svg>