<?xml version="1.0" encoding="UTF-8"?>
<svg id="Layer_2" data-name="Layer 2" xmlns="http://www.w3.org/2000/svg" viewBox="0 0 168.06 149.4">
  <defs>
    <style>
      .cls-1 {
        fill: #ec008c;
        stroke-width: 0px;
      }

      .cls-2 {
        fill: #2e3192;
        stroke: #2e3192;
        stroke-miterlimit: 10;
      }
    </style>
  </defs>
  <g id="upload_file" data-name="upload file">
    <g id="send_message" data-name="send message">
      <path class="cls-2" d="M6.05.74l159.62,66.68c2.46,1.03,2.54,4.49.13,5.63L6.18,148.6c-2.04.97-4.4-.52-4.4-2.78,0,0-2.88-46.63,0-52.85s4.29-14.54,36.85-15.9c47.62-1.98,45.65-4.68.5-5.53C6.91,70.93,1.78,57.03,1.78,47.59V3.58C1.78,1.38,4.02-.11,6.05.74Z"/>
    </g>
  </g>
  <g id="AddFriend">
    <path class="cls-1" d="M88.39,73.31c15.34.19,30.68-.14,46-.98,3.2-.18,3.22-5.18,0-5-15.32.84-30.66,1.17-46,.98-3.22-.04-3.22,4.96,0,5h0Z"/>
    <path class="cls-1" d="M19.24,35.76c3.35-2.72,6.56-6.55,7.86-10.73,1.5-4.87-1.65-9.2-5.89-11.3-2.12-1.05-4.7-2.29-6.99-1.02-2.11,1.16-2.95,3.8-2.38,6.06.54,2.11,2.12,3.9,3.63,5.4s3.14,2.72,4.9,3.79c3.93,2.39,8.41,3.86,12.92,4.67,1.33.24,2.69-.36,3.08-1.75.33-1.21-.41-2.83-1.75-3.08-6.03-1.09-12.03-3.3-16.26-7.84-.43-.46-.86-.94-1.18-1.44-.14-.22-.38-.64-.44-.79s-.1-.65-.14-.33c.02-.16.08-.34.13-.49-.08.23-.02.03.03.04l.07-.11c-.02.08-.07.14-.14.18-.02,0-.22.1-.22.11.03-.07-.13.03-.12,0,0-.02.69.21.63.19.32.11.63.24.94.37,2.59,1.13,5.26,3.03,4.34,6-.5,1.63-1.59,3.21-2.63,4.56-1.14,1.48-2.5,2.79-3.94,3.96-1.05.85-.89,2.65,0,3.54,1.04,1.04,2.48.85,3.54,0h0Z"/>
    <path class="cls-1" d="M8.48,111.7c5.26,2.5,9.46,6.33,12.27,11.32.3.54.52.95.59,1.38-.03-.2-.14.28,0,.12.02-.02.08-.21.09-.25,0-.03.14-.14.16-.12,0,0-.64.36-.67.37.38-.17-.46.12-.54.14-.15.04-.31.07-.46.1.04,0,.38-.04.08,0-.32.03-.63.04-.95.03-.16,0-.32-.02-.47-.03-.28-.02.3.08-.16-.02-.31-.07-.62-.14-.92-.23-.15-.05-.3-.1-.45-.16.1.04.38.2-.06-.03-.25-.13-.49-.25-.73-.4-.13-.08-.27-.17-.4-.26-.21-.14.17.17-.15-.12-.23-.22-.45-.44-.67-.67-.33-.36-.11-.15-.05-.06-.1-.15-.19-.3-.28-.44-.02-.03-.21-.42-.08-.12-.07-.16-.11-.34-.15-.5.03.15-.06.35,0-.1-.05.38.11-.13,0,0-.24.28.11-.03.2-.08.37-.21.74-.4,1.12-.59.86-.43,1.72-.84,2.6-1.22,1.67-.72,3.47-1.35,5.24-1.9,1.29-.4,2.11-1.75,1.75-3.08s-1.78-2.14-3.08-1.75c-2.19.67-4.33,1.48-6.43,2.4-1.94.84-4.36,1.71-5.59,3.54-2.54,3.8,1.14,8.35,4.61,9.87,1.85.81,3.79,1.11,5.79.83,2.22-.31,4.61-1.37,5.39-3.65s-.3-4.37-1.42-6.22c-1-1.66-2.17-3.22-3.44-4.68-2.82-3.23-6.35-5.89-10.22-7.73-1.22-.58-2.7-.34-3.42.9-.64,1.09-.33,2.84.9,3.42h0Z"/>
  </g>
</svg>