<?xml version="1.0" encoding="UTF-8"?>
<svg id="Layer_2" data-name="Layer 2" xmlns="http://www.w3.org/2000/svg" viewBox="0 0 85.26 94.84">
  <defs>
    <style>
      .cls-1 {
        fill: none;
      }

      .cls-1, .cls-2, .cls-3 {
        stroke: #5150a2;
        stroke-miterlimit: 10;
      }

      .cls-2 {
        fill: #be1e2d;
      }

      .cls-3 {
        fill: #be1e2d;
      }
    </style>
  </defs>
  <g id="AddFriend">
    <path class="cls-2" d="M65.38,92.94c-1.22,2.13-5.98,2.13-11.26-2.08-3.72,2.11-7.56,3.16-11.43,3.21s-7.75-.9-11.06-3.16c-5.6,4.16-10.36,4.16-7.4-1.2-6.26,5.37-9.26,4.02-7.06-4.36-6.55,4.02-7.9,1.02-6.22-6.1-1.68,3.83-1.68,2.41-.83-2.09-.86-.2-.86-3.5-.86-7.27,0-7.54,0-16.96-4.04-22.81,4.04-9.23,4.04-14.89-1.68-14.75,5.72-1.79,10.02-3.01,6.23-5.09,16.65.48,25.2.1,34.67-5.16,7.5,5.3,15.93,5.72,31.96,5.39-3.68,1.95.26,3.15,5.48,4.87-2.86-.07-4.29,1.31-4.5,3.86s.8,6.27,1.38,10.22c-.58,3.59-1.59,7.41-3.61,11.17,1.01,4.3,1.01,8.54-.55,12.46,1.57,3.62,1.57,6.92.73,9.41.83,2.22.83,3.64-.13,3.2.97,3.74-.38,6.74-3.89,8.1-.84,2.99-3.84,4.34-5.93,2.2Z"/>
    <path class="cls-3" d="M80.41,22.07c-5.87,1.45-9.85,1.45-6.22-1.99-15.55,3.44-23.5,3.44-31.42-5.56-7.97,9-15.92,9-31.48,5.55,3.63,3.45-.34,3.45-6.23,1.99,4.97,1.46,4.22.71-.67-1.6,4.89,1.39,4.89-6.61,1.63-8.32,3.26.79,4.01.04,1.52-2.01,3.4,2.05,7.38,2.05,7.48-3.09,11.82,5.14,19.77,5.14,27.73-6.17,7.94,11.31,15.89,11.31,27.7,6.18.11,5.13,4.09,5.13,7.48,3.09-2.47,2.04-1.72,2.79,1.52,2.01-3.25,1.7-3.25,9.7,1.63,8.31-4.87,2.3-5.62,3.05-.67,1.6Z"/>
    <path class="cls-1" d="M57.17,84.68c-2.73.82-5.36.98-7.84,0-2.66.62-5.16.1-7.56-1.19-2.36-.35-4.61-1.48-6.71-2.8s-4.04-2.86-5.78-4.51c-3.21-4.22-5.63-8.89-9-10.68,1.03-9.86,2.46-16.12-2.76-14.44,11.87-11.67,17.11-15.4,21.13-12.64,7.4-5.05,12.41-3.91,26.83,3.65-6.42-2.24-3.44,1.95,4.15,12.76-5.76-1.67-6.67,2.34-5.96,10.09-4.97-1.36-8.32,1.03-11.37,6.03-4.26-3.53-7.47-4.26-10.1-.32-2.48-7.35-4.39-10.03-6.9-4.57,1.34-11.3,1.92-13.87.85-4.87,3.8-13.09,5.94-14.61,10.09-3.59,2.61-12.37,6.66-9.67,12.25,3.42-4.08-5.6-6.24-2.36-7.84,6.12-4.4-7.28-6.99-9.01-7.35-1.78-.59-12.02.79-14.09,4.9-3.5"/>
  </g>
</svg>