<?xml version="1.0" encoding="UTF-8"?>
<svg id="Layer_2" data-name="Layer 2" xmlns="http://www.w3.org/2000/svg" viewBox="0 0 285.19 198.67">
  <defs>
    <style>
      .cls-1, .cls-2 {
        stroke-width: 0px;
      }

      .cls-1, .cls-3 {
        fill: #2e3192;
      }

      .cls-4, .cls-5 {
        fill: none;
      }

      .cls-4, .cls-5, .cls-3 {
        stroke: #2e3192;
        stroke-width: 12px;
      }

      .cls-4, .cls-3 {
        stroke-miterlimit: 10;
      }

      .cls-5 {
        stroke-linejoin: round;
      }

      .cls-2 {
        fill: #ec008c;
      }
    </style>
  </defs>
  <g id="upload_file" data-name="upload file">
    <g id="send_message" data-name="send message">
      <rect class="cls-4" x="6" y="6" width="273.19" height="186.67" rx="12" ry="12"/>
      <path class="cls-5" d="M6.62,188.24c27.02-25.78,49.3-51.56,76.32-77.34l57.3,34.19,91.73-63.23,46.6,44.2"/>
      <ellipse class="cls-3" cx="64.67" cy="57.56" rx="31.41" ry="29.63"/>
      <path class="cls-1" d="M58.99,35.86c-2.66.66-5.25,1.64-7.69,2.9s-3.97,2.89-4.6,5.53c-1.31,5.47-.85,11.27.42,16.7.73,3.13,5.56,1.81,4.82-1.33-1.02-4.34-1.44-8.94-.57-13.34.14-.69.24-1.55.7-2.11.51-.61,1.41-.96,2.11-1.3,1.95-.98,4.02-1.69,6.14-2.21,3.12-.78,1.8-5.6-1.33-4.82h0Z"/>
      <path class="cls-1" d="M48.83,43.6c-.93,1.36-1.64,2.92-2.08,4.5-.25.88-.38,1.78-.49,2.69-.12,1.03-.17,2.22.47,3.11.39.54.83.97,1.49,1.15.6.16,1.4.09,1.93-.25s1-.86,1.15-1.49.14-1.39-.25-1.93c-.05-.06-.09-.13-.12-.2l.25.6c-.03-.07-.05-.15-.06-.23l.09.66c-.07-.55.01-1.13.09-1.68l-.09.66c.16-1.15.47-2.26.91-3.33l-.25.6c.35-.82.78-1.6,1.28-2.33.35-.51.41-1.34.25-1.93s-.61-1.21-1.15-1.49c-1.27-.67-2.63-.26-3.42.9h0Z"/>
    </g>
  </g>
  <g id="AddFriend">
    <path class="cls-2" d="M190.11,131.23c-4.01,2.26-8.13,4.68-10.53,8.77-2.19,3.73-2.8,8.23-2.11,12.46,1.47,9.04,8.98,15.74,17.09,19.11,4.73,1.96,9.79,2.99,14.86,3.57s10.3.71,15.06-1.16c4.3-1.69,7.61-4.93,10.33-8.59,2.97-4.01,5.41-8.46,7.39-13.03,2.28-5.26,3.94-10.78,4.92-16.43.92-5.3,1.73-11.14-.43-16.24-.15-.36-.74-.4-.98-.13-3.09,3.46-6.17,6.92-9.26,10.38-1.54,1.73-3.09,3.46-4.63,5.19-.72.8-1.43,1.61-2.15,2.41-.27.3-.79,1.17-1.16,1.3-.69.24-1.08-.38-1.51-.76-5.49-4.83-12.81-7.35-20.11-7l.6.46c-1.04-6.47,5.24-11.32,6.6-17.28.1-.43-.29-.93-.77-.77-10.3,3.58-19.43,10.09-26.12,18.7-.49.63.39,1.52.88.88,6.56-8.44,15.47-14.86,25.57-18.38l-.77-.77c-1.44,6.31-7.71,11-6.6,17.94.04.26.35.47.6.46,4.02-.19,8.03.48,11.75,2.02,1.95.8,3.82,1.84,5.53,3.08.84.6,1.63,1.26,2.39,1.95.43.39.89.91,1.51.96.75.07,1.18-.48,1.64-.99.78-.85,1.54-1.73,2.32-2.59,1.65-1.85,3.31-3.71,4.96-5.56,3.2-3.58,6.39-7.16,9.59-10.75l-.98-.13c1.9,4.48,1.19,9.75.44,14.42s-1.93,9.12-3.54,13.49-3.75,8.74-6.25,12.77c-2.31,3.71-4.99,7.4-8.64,9.9-4.01,2.75-8.82,3.49-13.6,3.34s-9.68-.9-14.31-2.21c-8.33-2.36-16.59-7.48-19.92-15.85-1.77-4.44-1.88-9.64.08-14.04,2.12-4.74,6.51-7.38,10.86-9.83.7-.39.07-1.47-.63-1.08h0Z"/>
    <path class="cls-2" d="M200.73,156.08c-.77.29-1.21.95-1.3,1.75s.3,1.54.95,2.01c1.51,1.08,3.43.23,4.54-.99s2.12-3.17.97-4.72c-1.25-1.69-3.49-.69-4.72.48-.66.63-1.19,1.45-1.39,2.35-.11.46-.08.95.19,1.36.3.45.83.64,1.32.36.69-.41.06-1.49-.63-1.08.09-.05.39.03.37.06,0-.01,0,.07-.01-.02,0-.01-.06-.18-.05-.14-.02-.21.1-.52.2-.76.22-.5.56-.93.96-1.29.64-.59,2.03-1.5,2.75-.61s.04,2.1-.59,2.87c-.67.81-1.64,1.6-2.71,1.33-.25-.07-.48-.18-.66-.37-.16-.17-.21-.3-.24-.52.02.11,0-.1,0-.1,0,0,.01-.2,0-.1,0-.05.02-.11.03-.16,0-.02.07-.21.04-.13.05-.12.12-.2.16-.24,0,0,.09-.08.02-.03.02-.02.21-.11.14-.09.32-.12.53-.42.44-.77-.08-.3-.45-.56-.77-.44h0Z"/>
    <path class="cls-2" d="M201.35,155.95s0,.08,0,.09c0,0,.03-.16,0-.04-.01.05-.02.1-.04.15s-.03.1-.05.14c0,.02-.02.06-.03.08.07-.13.02-.04,0,0-.11.25-.23.49-.31.74-.15.46-.1,1.01.18,1.42.17.24.38.43.66.53s.61.05.87-.09c.5-.27.72-.88.87-1.39.17-.59.22-1.22.14-1.83-.02-.17-.05-.31-.18-.44-.11-.11-.29-.19-.44-.18-.3.01-.67.28-.62.62.03.21.04.43.04.64,0,.11,0,.21-.02.32,0,.01,0,.06,0,.07,0,0,.02-.12,0-.04-.01.07-.02.13-.03.19-.04.21-.1.42-.17.62,0,.02-.07.15-.03.09s-.02.04-.03.06c-.02.04-.04.08-.07.12,0,.02-.02.03-.03.05-.03.07.08-.08.03-.03-.02.02-.11.1-.03.04s0-.01-.01,0c-.04.04.05-.03.06-.02,0,0-.04.01-.05.02-.07,0,.1,0,.09-.01-.01,0-.03,0-.05,0-.08,0,.15.02.08.01-.03,0-.09-.03,0,0s.04.02.02,0c-.01,0-.03-.02-.04-.02-.05-.02.07.05.07.05,0-.01-.05-.06-.06-.07,0,0,.08.12.05.06-.01-.02-.03-.04-.04-.07-.02-.03-.03-.07-.05-.09,0,0,.04.13.03.07,0-.02-.01-.03-.02-.05-.01-.04-.02-.08-.03-.12-.02-.06,0,.08,0,.08,0-.02,0-.05,0-.07,0-.03,0-.07,0-.1,0-.11-.03.13,0,.03s.05-.19.09-.29c0-.02.02-.04.02-.06.03-.08-.06.14,0,0,.02-.05.04-.1.06-.14.06-.14.12-.27.18-.41.1-.24.16-.49.17-.76.02-.33-.3-.64-.62-.62-.36.02-.6.27-.62.62h0Z"/>
    <path class="cls-2" d="M203.93,137.81c-1.32,1.86-2.4,3.86-3.28,5.96-.27.65.85,1.13,1.14.48.86-1.9,1.71-3.79,2.57-5.69.14-.31.09-.67-.22-.86-.27-.16-.71-.08-.86.22-.65,1.38-1.3,2.77-1.95,4.15-.14.31-.09.67.22.86.27.16.71.08.86-.22.65-1.38,1.3-2.77,1.95-4.15l-1.08-.63c-.86,1.9-1.71,3.79-2.57,5.69l1.14.48c.83-2,1.9-3.9,3.15-5.66.19-.28.05-.7-.22-.86-.31-.18-.66-.05-.86.22h0Z"/>
    <path class="cls-2" d="M218.82,141.81c-1.49,2.18-2.31,4.75-2.4,7.38-.02.49.54.76.94.54,1.59-.87,2.17-2.95,1.35-4.55-.15-.28-.59-.41-.86-.22-.57.4-1.19.95-1.04,1.73.12.62.71,1.14,1.37.95s1.04-.98,1.29-1.53c.32-.71.49-1.47.49-2.25,0-.44-.55-.83-.94-.54-1.51,1.1-2.42,2.81-2.45,4.68,0,.5.53.75.94.54,1.3-.66,2.2-1.96,2.38-3.4.09-.68.04-1.54-.59-1.96s-1.46-.16-1.74.54c-.19.49.49,1.02.92.71.72-.53,1.14-1.26,1.2-2.16.05-.62-.88-.85-1.16-.32-.93,1.77-1.6,3.67-1.94,5.64-.15.86-.37,1.86-.14,2.73s1.03,1.36,1.91,1.3c1.59-.12,3.26-1.2,3.96-2.64.66-1.36.46-3.16-.69-4.21-1.41-1.29-3.49-.79-4.89.25-.69.51-1.29,1.16-1.71,1.91-.38.68-.8,1.72-.59,2.51.23.87,1.38,1.17,2.15,1.31.91.16,1.88.12,2.7-.36,1.29-.75,2.19-2.93.78-4.02-1.6-1.23-3.33,1.73-2.23,3.02.64.75,1.72.56,2.35-.1.79-.83.6-1.95.99-2.95.29-.75-.92-1.08-1.21-.33-.23.6-.22,1.24-.39,1.85-.06.22-.49,1.06-.8.7-.18-.21.02-.68.14-.87.07-.11.29-.38.37-.36s.2.33.22.45c.17,1.13-1.07,1.8-2.02,1.8-.32,0-.62-.05-.93-.13-.23-.06-.65-.13-.83-.3-.26-.24.11-1.08.26-1.37.49-1.03,1.4-1.9,2.47-2.32s2.18-.29,2.73.75c.46.87.31,1.89-.26,2.66s-1.7,1.48-2.69,1.5c-.7.01-.64-.69-.6-1.21.06-.75.19-1.5.36-2.24.35-1.51.89-2.96,1.61-4.34l-1.16-.32c-.03.42-.24.83-.58,1.08l.92.71s-.19.2-.18.15c0,.02.06.14.06.16.04.17.03.35.02.53-.03.35-.13.7-.27,1.02-.32.68-.84,1.21-1.51,1.56l.94.54c.02-1.4.69-2.77,1.83-3.6l-.94-.54c0,.7-.16,1.39-.51,2-.09.15-.24.3-.3.46l-.07.08c-.1.09-.02.12.23.09-.06.03.02-.12.06-.16.1-.12.24-.21.37-.3l-.86-.22c.51,1,.06,2.3-.91,2.84l.94.54c.08-2.42.86-4.75,2.23-6.75.45-.67-.63-1.29-1.08-.63h0Z"/>
    <path class="cls-2" d="M200.42,136.29c-.48-.51-1.24-.64-1.9-.43-.69.23-1.19.76-1.49,1.41-.33.73-.52,1.54-.69,2.32s-.26,1.63-.11,2.45c.23,1.34,1.18,2.53,2.58,2.73,1.3.19,2.69-.4,3.51-1.42,1.1-1.36,1.32-3.15,1.27-4.85-.01-.44-.53-.82-.94-.54-1.96,1.37-3.41,3.34-4.13,5.62-.18.58.46.9.92.71,1.3-.55,2.4-1.53,3.15-2.73.36-.58.7-1.27.82-1.94.14-.82-.36-1.57-1.24-1.52-.71.04-1.31.48-1.8.97-.53.53-.93,1.19-1.01,1.95-.15,1.41,1.42,2.94,2.8,2.1,1.13-.69,1.37-2.52.88-3.65-.23-.54-.71-.96-1.32-.97-.75-.01-1.3.55-1.6,1.19s-.56,1.64.29,2.02c.67.3,1.51-.09,1.96-.61,1.06-1.22.46-3.04-.9-3.73s-3.15-.19-3.69,1.25.87,3.23,2.43,2.82c.78-.2.45-1.41-.33-1.21-.55.14-1.05-.55-.96-1.07.11-.62.88-.89,1.43-.84.68.05,1.4.67,1.34,1.39-.03.32-.23.64-.52.77-.05.03-.17.03-.21.07,0,0-.03,0-.04,0,0,0,.13.21.15.2.04-.02.14-.45.18-.52.07-.14.15-.32.28-.42.09-.07.15-.07.21-.06.04,0,.08.05.11.1.08.14.12.25.15.41.07.33.04.65-.04.97-.07.28-.18.71-.48.84-.27.12-.56-.11-.71-.32-.21-.29-.2-.64-.08-.97.15-.4.46-.73.77-1.01.21-.19.51-.43.8-.42,0,0-.05-.06-.05-.06,0,.09-.04.19-.06.28-.07.23-.15.46-.25.68-.2.42-.44.83-.73,1.2-.62.78-1.43,1.38-2.35,1.77l.92.71c.61-1.96,1.87-3.7,3.55-4.87l-.94-.54c.06,1.95-.33,4.6-2.65,5.02-.89.16-1.69-.26-2.05-1.09-.49-1.14-.13-2.43.17-3.56.14-.54.28-1.16.69-1.58.26-.27.75-.44,1.04-.13.55.59,1.44-.3.88-.88h0Z"/>
    <path class="cls-2" d="M192.72,155.22c-1.36,2.27-3.15,7.34.62,8.38,2.65.73,7.18-1,6.85-4.27-.06-.55-.87-.94-1.16-.32-1.26,2.68-2.95,8.78,1.53,9.35,3.49.45,6.68-2.61,7.5-5.79.2-.78-1-1.11-1.21-.33-.65,2.5-2.96,4.92-5.69,4.92-.59,0-1.25-.13-1.69-.55-.55-.53-.57-1.34-.55-2.06.04-1.7.46-3.37,1.19-4.91l-1.16-.32c.24,2.4-3.36,3.61-5.27,3.07-2.73-.77-.77-5.05.12-6.54.42-.69-.66-1.32-1.08-.63h0Z"/>
    <path class="cls-2" d="M191.21,147.55c-2.72-7.06-7.04-13.41-12.65-18.49-.6-.54-1.48.34-.88.88,5.44,4.93,9.69,11.08,12.33,17.94.29.74,1.49.42,1.21-.33h0Z"/>
    <path class="cls-2" d="M190.67,151c-5.14-2.58-10.93-4.9-16.72-3.15-.77.23-.44,1.44.33,1.21,5.46-1.66,10.92.59,15.76,3.02.72.36,1.35-.72.63-1.08h0Z"/>
    <path class="cls-2" d="M187.09,154.68c-2.83,1.59-5.61,3.33-8.2,5.29-2.15,1.63-4.18,3.58-4.92,6.26-.21.78.99,1.11,1.21.33.7-2.55,2.77-4.37,4.83-5.88,2.46-1.8,5.05-3.44,7.71-4.93.7-.39.07-1.47-.63-1.08h0Z"/>
    <path class="cls-2" d="M220.53,162c5.54-1.76,11.32-2.53,17.13-2.28.8.04.8-1.21,0-1.25-5.91-.26-11.83.53-17.46,2.32-.76.24-.44,1.45.33,1.21h0Z"/>
    <path class="cls-2" d="M223.27,166.99c4.03,1.03,7.93,2.52,11.61,4.48,1.78.94,3.5,1.99,5.15,3.13.89.61,1.76,1.25,2.6,1.92s1.9,1.39,2.26,2.48c.25.76,1.46.43,1.21-.33-.62-1.87-2.54-3.04-4.06-4.16-1.87-1.38-3.83-2.64-5.87-3.76-3.96-2.18-8.19-3.84-12.57-4.96-.78-.2-1.11,1.01-.33,1.21h0Z"/>
    <path class="cls-2" d="M219.79,172.28c4,2.39,7.44,5.66,10.02,9.54.44.67,1.53.04,1.08-.63-2.71-4.06-6.29-7.48-10.47-9.98-.69-.41-1.32.67-.63,1.08h0Z"/>
    <path class="cls-2" d="M232.55,159.92c4.75-.15,9.51.07,14.22.67.8.1.79-1.15,0-1.25-4.72-.6-9.47-.82-14.22-.67-.8.03-.81,1.28,0,1.25h0Z"/>
    <path class="cls-2" d="M62.1,44.54c-2.41.08-4.5,2.01-5.97,3.76s-2.68,3.99-3.27,6.31c-.72,2.87-.24,5.23,1.45,7.64,1.5,2.14,3.29,3.42,5.88,3.96,4.92,1.02,10.32-.68,13.09-5.03s1.22-9.86-1.8-13.43c-3.45-4.08-10.43-6.16-14.37-1.56-.52.61.36,1.5.88.88,3.16-3.69,8.61-2.37,11.74.64,2.81,2.7,4.57,7.29,3.3,11.13-1.42,4.3-6.19,6.6-10.47,6.42-2.31-.1-4.65-.72-6.24-2.47s-2.76-3.82-2.55-6.18,1.21-4.63,2.55-6.53c1.26-1.79,3.43-4.22,5.79-4.3.8-.03.81-1.28,0-1.25h0Z"/>
    <path class="cls-1" d="M55.58,36.98c-5.77,1.05-10.69,5.96-12.36,11.48-1.79,5.94.19,12.57,4.86,16.62,1.02.88,2.53,1,3.54,0,.9-.9,1.02-2.65,0-3.54-3.39-2.94-4.88-7.4-3.57-11.76,1.2-3.98,4.78-7.25,8.87-7.99,1.33-.24,2.08-1.86,1.75-3.08-.38-1.4-1.74-1.99-3.08-1.75h0Z"/>
    <path class="cls-1" d="M52.13,36.6c-5.96,1.39-9.36,7.09-10.37,12.76s-.23,12.68,5.5,15.71c2.84,1.5,5.37-2.81,2.52-4.32-3.75-1.98-3.84-6.8-3.13-10.46.75-3.85,2.65-7.89,6.8-8.87,3.13-.73,1.81-5.56-1.33-4.82h0Z"/>
    <path class="cls-2" d="M75.62,68.45c-4.22,2.2-8.73,3.24-13.24,2.99-9.14-.19-18.58-7.88-17.63-17.66,1.53-15.2,22.22-20.05,32.64-10.35,8.02,7.05,6.92,19.06-1.72,25.08,0,0-3.18-4.58-3.18-4.58,2.83-1.86,4.88-4.8,5.17-8.03.88-11.46-14.97-16.38-23.33-10.21-2.93,1.97-4.99,5.1-5.26,8.47-.99,11.4,15.78,17.34,23.46,9.84,0,0,3.09,4.45,3.09,4.45h0Z"/>
    <path class="cls-2" d="M98,57.12c.22,23.84-24.02,39.73-46.07,30.95-17.33-6.57-26.39-26.77-18.44-43.79,7.27-16.29,27.76-23.89,44-16.96,11.94,4.77,20.53,16.88,20.51,29.8h0ZM95.9,57.12c0-26.62-33.69-38.53-52.05-20.55-11.61,10.97-11.43,29.95.46,40.62,17.85,16.94,51.13,5.58,51.59-20.07h0Z"/>
  </g>
</svg>